<svg width="38" height="40" viewBox="0 0 38 40" version="1.1" xmlns="http://www.w3.org/2000/svg" xmlns:xlink="http://www.w3.org/1999/xlink">
<title>svgexport-29 2</title>
<desc>Created using Figma</desc>
<g id="Canvas" transform="translate(-9181 -530)">
<g id="svgexport-29 2">
<g id="Vector">
<use xlink:href="#path0_fill" transform="translate(9181 530.87)" fill="#FFB400"/>
</g>
<g id="Vector">
<use xlink:href="#path1_fill" transform="translate(9182.11 530)" fill="#484848"/>
</g>
</g>
</g>
<defs>
<path id="path0_fill" d="M 5.42857 34.683C 5.42857 34.9189 5.33325 35.1451 5.16357 35.3119C 4.9939 35.4786 4.76377 35.5723 4.52381 35.5723L 3.61905 35.5723L 3.61905 36.4616C 3.61905 36.6975 3.52372 36.9237 3.35405 37.0905C 3.18437 37.2573 2.95424 37.3509 2.71429 37.3509C 2.47433 37.3509 2.2442 37.2573 2.07452 37.0905C 1.90485 36.9237 1.80952 36.6975 1.80952 36.4616L 1.80952 35.5723L 0.904762 35.5723C 0.664804 35.5723 0.434675 35.4786 0.264999 35.3119C 0.095323 35.1451 0 34.9189 0 34.683C 0 34.4472 0.095323 34.221 0.264999 34.0542C 0.434675 33.8874 0.664804 33.7937 0.904762 33.7937L 1.80952 33.7937L 1.80952 32.9044C 1.80952 32.6685 1.90485 32.4423 2.07452 32.2756C 2.2442 32.1088 2.47433 32.0151 2.71429 32.0151C 2.95424 32.0151 3.18437 32.1088 3.35405 32.2756C 3.52372 32.4423 3.61905 32.6685 3.61905 32.9044L 3.61905 33.7937L 4.52381 33.7937C 4.76377 33.7937 4.9939 33.8874 5.16357 34.0542C 5.33325 34.221 5.42857 34.4472 5.42857 34.683ZM 8.14286 37.3509C 7.96391 37.3509 7.78899 37.4031 7.6402 37.5008C 7.49141 37.5985 7.37545 37.7374 7.30697 37.8999C 7.23849 38.0624 7.22057 38.2412 7.25548 38.4138C 7.29039 38.5863 7.37656 38.7447 7.50309 38.8691C 7.62963 38.9935 7.79084 39.0782 7.96635 39.1125C 8.14185 39.1468 8.32377 39.1292 8.48909 39.0619C 8.65442 38.9946 8.79572 38.8806 8.89514 38.7343C 8.99456 38.5881 9.04762 38.4161 9.04762 38.2403C 9.04762 38.0044 8.9523 37.7782 8.78262 37.6114C 8.61294 37.4446 8.38282 37.3509 8.14286 37.3509ZM 37.0952 1.77862L 36.1905 1.77862L 36.1905 0.889308C 36.1905 0.653449 36.0952 0.42725 35.9255 0.260472C 35.7558 0.0936947 35.5257 7.89864e-16 35.2857 1.97466e-16C 35.0458 7.89864e-16 34.8156 0.0936947 34.646 0.260472C 34.4763 0.42725 34.381 0.653449 34.381 0.889308L 34.381 1.77862L 33.4762 1.77862C 33.2362 1.77862 33.0061 1.87231 32.8364 2.03909C 32.6668 2.20587 32.5714 2.43207 32.5714 2.66792C 32.5714 2.90378 32.6668 3.12998 32.8364 3.29676C 33.0061 3.46354 33.2362 3.55723 33.4762 3.55723L 34.381 3.55723L 34.381 4.44654C 34.381 4.6824 34.4763 4.9086 34.646 5.07538C 34.8156 5.24216 35.0458 5.33585 35.2857 5.33585C 35.5257 5.33585 35.7558 5.24216 35.9255 5.07538C 36.0952 4.9086 36.1905 4.6824 36.1905 4.44654L 36.1905 3.55723L 37.0952 3.55723C 37.3352 3.55723 37.5653 3.46354 37.735 3.29676C 37.9047 3.12998 38 2.90378 38 2.66792C 38 2.43207 37.9047 2.20587 37.735 2.03909C 37.5653 1.87231 37.3352 1.77862 37.0952 1.77862ZM 32.4249 10.4405C 27.8817 9.72359 23.6394 7.75217 20.1925 4.75602C 20.0995 4.66499 19.9812 4.60307 19.8524 4.57809C 19.7237 4.55311 19.5903 4.56619 19.4691 4.61566C 19.3479 4.66514 19.2443 4.7488 19.1715 4.85609C 19.0986 4.96337 19.0597 5.08947 19.0597 5.21846L 19.2009 34.0747C 19.2059 34.1869 19.2396 34.2959 19.2987 34.392C 19.3578 34.488 19.4405 34.5679 19.5392 34.6244C 19.6379 34.6808 19.7494 34.712 19.8635 34.7151C 19.9777 34.7182 20.0908 34.6931 20.1925 34.6421C 24.7593 32.7328 28.5211 29.3409 30.8493 25.033C 33.1775 20.7251 33.931 15.7624 32.984 10.9741C 32.9598 10.8383 32.8925 10.7136 32.7917 10.6177C 32.6909 10.5219 32.5619 10.4598 32.423 10.4405L 32.4249 10.4405Z"/>
<path id="path1_fill" d="M 21.3061 13.8811C 21.0724 13.1989 20.6268 12.6059 20.0321 12.1859C 19.4373 11.7658 18.7234 11.5398 17.991 11.5398C 17.2587 11.5398 16.5448 11.7658 15.95 12.1859C 15.3552 12.6059 14.9096 13.1989 14.676 13.8811L 10.2933 22.4985C 9.79125 23.3698 9.54096 24.3594 9.56952 25.3603C 9.62488 26.3954 10.0682 27.3736 10.814 28.1064C 11.5599 28.8391 12.5553 29.2744 13.6084 29.3284C 15.2475 29.2122 16.7959 28.5445 17.9928 27.4377C 19.1895 28.5439 20.7371 29.2115 22.3755 29.3284C 23.428 29.2741 24.4227 28.8388 25.1681 28.1065C 25.9135 27.3741 26.3568 26.3965 26.4126 25.3621C 26.4414 24.3611 26.1911 23.3715 25.6888 22.5003L 21.3061 13.8811ZM 16.3896 21.6661C 16.3896 21.5772 16.4077 19.4784 17.991 19.4784C 19.5744 19.4784 19.5907 21.5772 19.5907 21.6661C 19.4255 22.8919 18.8649 24.0333 17.991 24.9228C 17.1172 24.0338 16.556 22.8931 16.3896 21.6679L 16.3896 21.6661ZM 22.3755 27.5498C 21.2184 27.4396 20.1306 26.9569 19.2812 26.1767C 20.4785 24.9468 21.2242 23.3595 21.4002 21.6661C 21.4506 21.1962 21.4063 20.7211 21.2699 20.2679C 21.1335 19.8148 20.9076 19.3925 20.6052 19.0252C 20.3027 18.6579 19.9296 18.3527 19.5071 18.1271C 19.0847 17.9015 18.6212 17.76 18.143 17.7105L 17.991 17.698C 17.5111 17.7277 17.0418 17.85 16.61 18.058C 16.1782 18.266 15.7923 18.5556 15.4743 18.9102C 15.1564 19.2648 14.9126 19.6775 14.757 20.1248C 14.6014 20.572 14.537 21.045 14.5674 21.5167L 14.5801 21.6661C 14.7562 23.3602 15.5033 24.9478 16.7027 26.1767C 15.852 26.9572 14.763 27.4399 13.6048 27.5498C 13.0326 27.4971 12.4971 27.2497 12.0907 26.8503C 11.6843 26.4509 11.4326 25.9245 11.379 25.3621C 11.3509 24.6375 11.5349 23.9202 11.9092 23.2953L 16.2955 14.6762C 16.8854 13.5165 17.2944 13.3209 17.991 13.3209C 18.6877 13.3209 19.0985 13.5165 19.6866 14.6762L 24.071 23.2953C 24.4462 23.9199 24.6308 24.6373 24.603 25.3621C 24.5494 25.9248 24.2974 26.4514 23.8907 26.8508C 23.484 27.2503 22.948 27.4975 22.3755 27.5498ZM 35.0657 9.15C 35.0293 8.96694 34.9354 8.79974 34.797 8.67207C 34.6587 8.54439 34.483 8.4627 34.2948 8.43855C 28.181 7.84265 22.5454 4.92428 18.5882 0.304938C 18.5003 0.208959 18.3928 0.132213 18.2728 0.0796802C 18.1528 0.0271471 18.0229 -4.24878e-08 17.8915 -4.24878e-08C 17.7601 -4.24878e-08 17.6302 0.0271471 17.5102 0.0796802C 17.3902 0.132213 17.2827 0.208959 17.1949 0.304938C 13.2373 4.92362 7.60173 7.84132 1.48819 8.43677C 1.29978 8.46103 1.12392 8.54298 0.985554 8.671C 0.84719 8.79902 0.753346 8.96661 0.717331 9.15C -2.13448 23.7222 3.52571 34.0773 17.5405 39.929C 17.652 39.9758 17.772 40 17.8933 40C 18.0146 40 18.1347 39.9758 18.2462 39.929C 32.2609 34.0773 37.9193 23.7222 35.0675 9.15L 35.0657 9.15ZM 17.8933 38.1432C 5.04752 32.6544 -0.031811 23.4768 2.37847 10.1105C 8.33734 9.37767 13.8367 6.58541 17.8933 2.23296C 21.9499 6.58541 27.4493 9.37767 33.4082 10.1105C 35.8185 23.475 30.7391 32.6526 17.8933 38.1432Z"/>
</defs>
</svg>
