<svg width="20" height="20" viewBox="0 0 20 20" version="1.1" xmlns="http://www.w3.org/2000/svg" xmlns:xlink="http://www.w3.org/1999/xlink">
<title>svgexport-25 2</title>
<desc>Created using Figma</desc>
<g id="Canvas" transform="translate(-7021 -66)">
<g id="svgexport-25 2">
<g id="Vector">
<use xlink:href="#path0_fill" transform="translate(7021 66)"/>
</g>
</g>
</g>
<defs>
<path id="path0_fill" fill-rule="evenodd" d="M 17.0667 5.92917C 17.4601 5.62017 17.7784 5.22611 17.9977 4.77654C 18.2171 4.32697 18.3319 3.83357 18.3333 3.33333C 18.3333 2.44928 17.9821 1.60143 17.357 0.976311C 16.7319 0.351189 15.8841 5.55111e-16 15 0C 14.1159 6.4763e-16 13.2681 0.351189 12.643 0.976311C 12.0179 1.60143 11.6667 2.44928 11.6667 3.33333C 11.6667 4.38917 12.1667 5.31833 12.9325 5.92917C 12.1733 6.10151 11.4868 6.50646 10.9688 7.08755C 10.4507 7.66865 10.1269 8.39693 10.0425 9.17083C 10.0275 9.17083 10.0142 9.16667 10 9.16667C 9.5872 9.16651 9.18082 9.26874 8.81723 9.4642C 8.45365 9.65966 8.14422 9.94226 7.91667 10.2867C 7.5525 9.7625 6.965 9.41 6.23917 9.25833C 6.63098 8.94923 6.94789 8.55558 7.16622 8.10681C 7.38454 7.65804 7.49865 7.16573 7.5 6.66667C 7.5 5.78261 7.14881 4.93476 6.52369 4.30964C 5.89857 3.68452 5.05072 3.33333 4.16667 3.33333C 3.28261 3.33333 2.43477 3.68452 1.80964 4.30964C 1.18452 4.93476 0.833333 5.78261 0.833333 6.66667C 0.833333 7.73667 1.34583 8.6775 2.12917 9.2875C 0.905833 9.63333 0 10.7467 0 12.0808L 0 14.5858C 0.000662015 15.3585 0.307902 16.0994 0.854271 16.6457C 1.40064 17.1921 2.14148 17.4993 2.91417 17.5L 5.89667 17.5C 6.18667 18.925 7.44667 20 8.9575 20L 11.0425 20C 11.7631 20.0011 12.4618 19.7526 13.0199 19.2969C 13.578 18.8411 13.9611 18.2062 14.1042 17.5L 16.2483 17.5C 16.7413 17.4998 17.2294 17.4025 17.6847 17.2136C 18.1401 17.0247 18.5538 16.748 18.9021 16.3992C 19.2505 16.0504 19.5268 15.6364 19.7152 15.1809C 19.9035 14.7253 20.0003 14.2371 20 13.7442L 20 9.58833C 19.9993 8.73604 19.7085 7.90937 19.1753 7.24443C 18.6421 6.57949 17.8984 6.11591 17.0667 5.93L 17.0667 5.92917ZM 12.5 3.33333C 12.5 2.67029 12.7634 2.03441 13.2322 1.56557C 13.7011 1.09673 14.337 0.833333 15 0.833333C 15.663 0.833333 16.2989 1.09673 16.7678 1.56557C 17.2366 2.03441 17.5 2.67029 17.5 3.33333C 17.5 3.99637 17.2366 4.63226 16.7678 5.1011C 16.2989 5.56994 15.663 5.83333 15 5.83333C 14.337 5.83333 13.7011 5.56994 13.2322 5.1011C 12.7634 4.63226 12.5 3.99637 12.5 3.33333ZM 10 10C 10.442 10 10.8659 10.1756 11.1785 10.4882C 11.4911 10.8007 11.6667 11.2246 11.6667 11.6667C 11.6667 12.1087 11.4911 12.5326 11.1785 12.8452C 10.8659 13.1577 10.442 13.3333 10 13.3333C 9.55797 13.3333 9.13405 13.1577 8.82149 12.8452C 8.50893 12.5326 8.33333 12.1087 8.33333 11.6667C 8.33333 11.2246 8.50893 10.8007 8.82149 10.4882C 9.13405 10.1756 9.55797 10 10 10ZM 1.66667 6.66667C 1.66667 6.00362 1.93006 5.36774 2.3989 4.8989C 2.86774 4.43006 3.50363 4.16667 4.16667 4.16667C 4.82971 4.16667 5.46559 4.43006 5.93443 4.8989C 6.40327 5.36774 6.66667 6.00362 6.66667 6.66667C 6.66667 7.32971 6.40327 7.96559 5.93443 8.43443C 5.46559 8.90327 4.82971 9.16667 4.16667 9.16667C 3.50363 9.16667 2.86774 8.90327 2.3989 8.43443C 1.93006 7.96559 1.66667 7.32971 1.66667 6.66667ZM 5.85417 16.6667L 2.91417 16.6667C 2.3625 16.666 1.83361 16.4466 1.44353 16.0565C 1.05344 15.6664 0.833995 15.1375 0.833333 14.5858L 0.833333 12.0808C 0.833995 11.5292 1.05344 11.0003 1.44353 10.6102C 1.83361 10.2201 2.3625 10.0007 2.91417 10L 5.41917 10C 6.69083 10 7.505 10.6275 7.5 11.6642L 7.5 11.6667C 7.50045 12.0893 7.60838 12.5048 7.81364 12.8742C 8.01889 13.2436 8.31473 13.5547 8.67333 13.7783C 7.93596 13.8439 7.24638 14.1711 6.72931 14.7009C 6.21223 15.2306 5.90181 15.9279 5.85417 16.6667ZM 11.0425 19.1667L 8.9575 19.1667C 8.34999 19.166 7.76757 18.9243 7.33807 18.4947C 6.90858 18.065 6.66711 17.4825 6.66667 16.875C 6.66601 16.5739 6.72483 16.2756 6.83977 15.9972C 6.9547 15.7189 7.12348 15.466 7.33641 15.2531C 7.54934 15.0401 7.80224 14.8714 8.08057 14.7564C 8.35891 14.6415 8.6572 14.5827 8.95833 14.5833L 11.0417 14.5833C 11.6493 14.5838 12.232 14.8254 12.6616 15.255C 13.0913 15.6847 13.3329 16.2673 13.3333 16.875C 13.334 17.1761 13.2752 17.4744 13.1602 17.7528C 13.0453 18.0311 12.8765 18.284 12.6636 18.4969C 12.4507 18.7099 12.1978 18.8786 11.9194 18.9936C 11.6411 19.1085 11.3428 19.1673 11.0417 19.1667L 11.0425 19.1667ZM 19.1667 13.7442C 19.167 14.1277 19.0918 14.5075 18.9453 14.862C 18.7988 15.2164 18.5839 15.5386 18.3129 15.8099C 18.0419 16.0813 17.7201 16.2967 17.3658 16.4437C 17.0116 16.5907 16.6319 16.6664 16.2483 16.6667L 14.1458 16.6667C 14.0965 15.9284 13.7854 15.2319 13.2685 14.7024C 12.7516 14.173 12.0627 13.8453 11.3258 13.7783C 11.6846 13.5548 11.9806 13.2438 12.186 12.8743C 12.3914 12.5049 12.4995 12.0893 12.5 11.6667C 12.4992 11.1556 12.3414 10.6571 12.0479 10.2387C 11.7544 9.82034 11.3394 9.50224 10.8592 9.3275C 10.9933 7.83833 12.2292 6.66667 13.7517 6.66667L 16.2483 6.66667C 17.0227 6.66733 17.7651 6.97547 18.3124 7.52334C 18.8596 8.07121 19.1669 8.81397 19.1667 9.58833L 19.1667 13.7442Z"/>
</defs>
</svg>
