<svg width="20" height="15" viewBox="0 0 20 15" version="1.1" xmlns="http://www.w3.org/2000/svg" xmlns:xlink="http://www.w3.org/1999/xlink">
<title>svgexport-24</title>
<desc>Created using Figma</desc>
<g id="Canvas" transform="translate(-8911 -23)">
<g id="svgexport-24">
<g id="Shape">
<use xlink:href="#path0_fill" transform="translate(8911 23)"/>
</g>
</g>
</g>
<defs>
<path id="path0_fill" fill-rule="evenodd" d="M 18.7902 4.79996C 18.8966 4.80251 18.9991 4.76281 19.0763 4.6896C 19.1534 4.61641 19.1984 4.51569 19.2013 4.40962C 19.2032 4.30354 19.1642 4.2008 19.0909 4.124C 16.5939 1.5088 13.378 0 9.59972 0C 5.82238 0 2.60656 1.508 0.110466 4.124C -0.0418778 4.28394 -0.0360184 4.53717 0.124138 4.6896C 0.284294 4.84203 0.537224 4.83594 0.689568 4.676C 3.04015 2.2128 6.05285 0.799999 9.59972 0.799999C 13.1476 0.799999 16.1583 2.212 18.5109 4.676C 18.5841 4.75282 18.6847 4.79741 18.7902 4.79996ZM 16.7198 6.556C 16.8175 6.66795 16.8458 6.82505 16.7921 6.96383C 16.7384 7.10261 16.6114 7.20012 16.464 7.21695C 16.3165 7.23378 16.171 7.16716 16.088 7.044C 14.7599 5.3296 11.9083 4 9.59972 4C 7.3341 4 4.59484 5.2952 3.10558 7.0584C 2.96301 7.22718 2.71008 7.24831 2.54113 7.1056C 2.37218 6.96289 2.35168 6.71038 2.49426 6.5416C 4.1339 4.6008 7.09679 3.2 9.59972 3.2C 12.1515 3.2 15.2374 4.6384 16.7198 6.5552L 16.7198 6.556ZM 14.3575 9.3796C 14.422 9.2518 14.4132 9.09947 14.3351 8.98C 13.2306 7.3008 11.4718 6.4 9.6007 6.4C 7.72863 6.4 5.96984 7.3008 4.86633 8.98C 4.74426 9.16468 4.79601 9.4129 4.98058 9.5344C 5.16515 9.6559 5.4132 9.60468 5.53429 9.42C 6.48644 7.9712 7.99035 7.2 9.6007 7.2C 11.2101 7.2 12.714 7.9712 13.6661 9.42C 13.7443 9.53947 13.881 9.60793 14.0236 9.5996C 14.1661 9.59127 14.2941 9.5074 14.3575 9.3796ZM 9.6007 9.6C 8.27453 9.6 7.20031 10.6745 7.20031 12C 7.20031 13.3255 8.27453 14.4 9.6007 14.4C 10.9259 14.4 12.0001 13.3255 12.0001 12C 12.0001 10.6745 10.9259 9.6 9.6007 9.6ZM 9.59972 13.6C 8.71691 13.6 8.00011 12.8837 8.00011 12C 8.00011 11.1163 8.71691 10.4 9.59972 10.4C 10.4835 10.4 11.2003 11.1163 11.2003 12C 11.2003 12.8837 10.4835 13.6 9.59972 13.6Z"/>
</defs>
</svg>
