<svg width="16" height="16" viewBox="0 0 16 16" version="1.1" xmlns="http://www.w3.org/2000/svg" xmlns:xlink="http://www.w3.org/1999/xlink">
<title>share</title>
<desc>Created using Figma</desc>
<g id="Canvas" transform="translate(-8508 877)">
<g id="share">
<g id="Shape">
<use xlink:href="#path0_fill" transform="translate(8508 -877)" fill="#767676"/>
</g>
</g>
</g>
<defs>
<path id="path0_fill" fill-rule="evenodd" d="M 5.5166 3.00269C 5.41113 3.07935 5.28418 3.11933 5.14941 3.11933C 4.96973 3.12 4.80176 3.0467 4.68945 2.91999C 4.63379 2.85798 4.59473 2.78589 4.5752 2.70954C 4.55957 2.65082 4.55566 2.58954 4.56348 2.52833C 4.58008 2.38752 4.65918 2.25904 4.78125 2.172L 7.63184 0.112004C 7.64844 0.1023 7.66504 0.09406 7.68359 0.0873462L 7.73242 0.0653735L 7.77734 0.0419971L 7.78418 0.0373584C 7.85352 0.0126391 7.92578 4.87078e-06 8 4.87078e-06C 8.07617 -0.000300305 8.15137 0.0137378 8.22168 0.0413257L 8.25781 0.0613452L 8.2666 0.0653735L 8.31641 0.0873462C 8.33398 0.09406 8.35059 0.102361 8.36719 0.112004L 11.2178 2.172C 11.3389 2.2594 11.417 2.38764 11.4346 2.52808C 11.4512 2.66858 11.4062 2.80951 11.3096 2.91932C 11.1973 3.0467 11.0283 3.12031 10.8496 3.11933C 10.7158 3.12006 10.5869 3.07886 10.4824 3.00269L 9.02051 1.94666L 8.58887 1.63465L 8.58887 10.828C 8.58887 11.1207 8.32422 11.36 8 11.36C 7.6748 11.36 7.41113 11.1207 7.41113 10.8273L 7.41113 1.63404L 6.97754 1.94666L 5.5166 3.00269ZM 13.1309 5.66535L 15.4111 5.66535C 15.7334 5.66388 15.9971 5.90162 16 6.19733L 16 15.468C 16 15.7614 15.7354 16 15.4111 16L 0.588867 16C 0.264648 16 0 15.7614 0 15.468L 0 6.19733C 0.00292969 5.90162 0.266602 5.66388 0.588867 5.66535L 3.43945 5.66535C 3.76172 5.66388 4.02539 5.90162 4.02832 6.19733C 4.02832 6.34583 3.96094 6.48047 3.85156 6.57721C 3.74512 6.67164 3.59961 6.73005 3.43945 6.73005L 1.17773 6.73005L 1.17773 14.9354L 14.8223 14.9354L 14.8223 6.72937L 13.1309 6.72937C 12.8057 6.72937 12.542 6.49067 12.542 6.19733C 12.5449 5.90162 12.8086 5.66388 13.1309 5.66535Z"/>
</defs>
</svg>
