<svg width="17" height="16" viewBox="0 0 17 16" version="1.1" xmlns="http://www.w3.org/2000/svg" xmlns:xlink="http://www.w3.org/1999/xlink">
<title>Shape</title>
<desc>Created using Figma</desc>
<g id="Canvas" transform="translate(-9056 -827)">
<g id="Shape">
<use xlink:href="#path0_fill" transform="translate(9056.01 827.008)" fill="#008489"/>
</g>
</g>
<defs>
<path id="path0_fill" d="M 15.9358 5.70721C 16.0871 6.15471 15.9694 6.50632 15.5997 6.77802L 11.7999 9.52854L 13.262 14.0051C 13.4469 14.6284 12.9595 15.2038 12.3545 15.2038C 12.1529 15.2038 11.968 15.1399 11.7999 15.012L 8.00019 12.2631L 4.20044 15.0136C 3.7803 15.2853 3.20891 15.2054 2.8896 14.8218C 2.68794 14.5661 2.63752 14.2944 2.75516 14.0067L 4.20044 9.5621L 0.383884 6.77802C 0.0309658 6.50632 -0.0866736 6.15471 0.0645771 5.70721C 0.199022 5.32364 0.55194 5.06793 0.93847 5.06793L 5.64573 5.06793L 7.10782 0.623303C 7.22546 0.255714 7.57837 0 7.98171 0C 8.40185 0 8.77157 0.271696 8.88921 0.655267L 10.3513 5.06793L 15.0586 5.06793C 15.4484 5.06793 15.8014 5.32364 15.9358 5.70721Z"/>
</defs>
</svg>
